<?xml version="1.0" encoding="utf-8"?>
<!-- Svg Vector Icons : http://www.onlinewebfonts.com/icon -->
<!DOCTYPE svg PUBLIC "-//W3C//DTD SVG 1.1//EN" "http://www.w3.org/Graphics/SVG/1.1/DTD/svg11.dtd">
<svg version="1.1" xmlns="http://www.w3.org/2000/svg" xmlns:xlink="http://www.w3.org/1999/xlink" x="0px" y="0px" viewBox="0 0 1000 1000" enable-background="new 0 0 1000 1000" xml:space="preserve">
<metadata> Svg Vector Icons : http://www.onlinewebfonts.com/icon </metadata>
<g><g transform="matrix(1 0 0 -1 0 960)"><path d="M500,544.6c-35.9,27.1-63.3,58.2-82.1,93.3c-18.8,35.1-28.2,71.4-28.2,109s9.3,73.9,27.8,109c18.5,35.1,46,66.5,82.5,94.1c36.5-27.6,64-59,82.5-94.1c18.5-35.1,27.8-71.4,27.8-109c0-24.3-4-48.4-12-72.1c-8-23.8-20.3-46.8-36.9-69.2C544.8,583.1,524.3,562.8,500,544.6z M458.5,380.4c-68.5,0-127.1,24.3-175.8,73c-48.6,48.6-73,107.2-73,175.8c68.5,0,127.1-24.3,175.8-73C434.2,507.5,458.5,448.9,458.5,380.4z M541.5,380.4c0,68.5,24.3,127.1,73,175.8c48.6,48.6,107.2,73,175.8,73c0-68.5-24.3-127.1-73-175.8C668.6,404.7,610,380.4,541.5,380.4z M458.5,131.7c-68.5,0-127.1,24.3-175.8,73c-48.6,48.6-73,107.2-73,175.8c68.5,0,127.1-24.3,175.8-73C434.2,258.8,458.5,200.2,458.5,131.7z M541.5,131.7c0,68.5,24.3,127.1,73,175.8c48.6,48.6,107.2,73,175.8,73c0-68.5-24.3-127.1-73-175.8S610,131.7,541.5,131.7z M500-30c-11.6,0-21.4,4-29.4,12c-8,8-12,17.8-12,29.4v117.7c22.1-2.2,34-3.3,35.7-3.3c9.4,0,25.2,1.7,47.3,5V11.5c0-11.6-4-21.4-12-29.4C521.4-26,511.6-30,500-30z"/></g></g>
</svg>