<?xml version="1.0" encoding="utf-8"?>
<!-- Svg Vector Icons : http://www.onlinewebfonts.com/icon -->
<!DOCTYPE svg PUBLIC "-//W3C//DTD SVG 1.1//EN" "http://www.w3.org/Graphics/SVG/1.1/DTD/svg11.dtd">
<svg version="1.1" xmlns="http://www.w3.org/2000/svg" xmlns:xlink="http://www.w3.org/1999/xlink" x="0px" y="0px" viewBox="0 0 1000 1000" enable-background="new 0 0 1000 1000" xml:space="preserve">
<metadata> Svg Vector Icons : http://www.onlinewebfonts.com/icon </metadata>
<g><g transform="translate(0.000000,511.000000) scale(0.100000,-0.100000)"><path d="M9545.1,4112.8c-6-4-2050.5-529.7-4544.5-1163.7C2508.6,2313,448,1779.3,424,1763.3c-54.2-34.1-68.2-84.3-156.5-519.7C151.1,655.7,84.9-16.4,102.9-411.7c22.1-435.4,114.4-929,256.8-1378.4c88.3-272.9,68.2-254.8,216.7-214.7c46.2,14.1,48.2,12.1,38.1-92.3c-10-100.3-6-112.3,86.3-248.8c174.6-260.8,537.7-630,788.5-798.6c248.8-170.5,628-307,1336.3-485.5c543.7-138.4,1177.8-272.9,1282.1-272.9c74.2,0,248.8,132.4,2925.3,2217.1C8764.6-337.4,9884.1,549.4,9896.2,577.5c10,30.1,0,595.9-26.1,1430.6c-64.2,2102.7-60.2,2014.4-114.4,2068.6c-32.1,32.1-70.2,46.1-124.4,46.1C9589.2,4122.8,9549.1,4118.8,9545.1,4112.8z M9486.9,3587.1c0-42.1,18.1-618,40.1-1280.1c22.1-662.1,40.1-1292.1,40.1-1398.5V713.9l-1623.2-1264c-894.9-696.2-1631.2-1266-1637.2-1266c-8,0-82.3,72.2-164.5,162.5c-431.4,457.5-931,620-1189.8,385.2c-116.4-102.3-150.5-214.7-148.5-467.5c2-278.9,76.2-553.8,230.7-866.8l78.2-154.5l-425.4-331.1c-234.7-182.6-429.4-329-431.4-325c-12,12-82.3,742.4-104.3,1083.4c-48.1,694.2-22.1,1005.2,128.4,1611.1c88.3,359.1,276.9,1007.2,313,1073.4c10,20.1,66.2,66.2,120.4,104.3l102.3,68.2l104.3-82.3c196.6-162.5,503.6-260.8,666.1-216.7c100.3,26.1,162.5,84.3,216.7,200.6c36.1,78.3,42.1,130.4,42.1,353.1c0,144.5-6,296.9-16,341.1l-16,80.3L7002.9,2002c654.1,439.4,1474.7,991.2,1821.8,1227.9c347.1,234.8,638,427.4,648.1,429.4C9480.8,3661.3,9486.9,3627.2,9486.9,3587.1z M8682.3,3532.9c-30.1-24.1-4249.6-2859.1-4285.7-2879.2c-82.3-42.1-547.7-66.2-834.7-42.1c-493.6,40.1-744.4,112.4-1619.2,461.5c-437.4,174.6-1045.3,435.4-1069.4,459.5c-8,8,258.8,84.3,591.9,170.5c335.1,84.3,2088.7,533.7,3898.4,995.2C8543.9,3508.8,8700.4,3549,8682.3,3532.9z M1050,1083.1c359.1-158.5,1027.3-427.4,1446.6-577.8c477.5-174.6,898.9-242.8,1418.5-230.7c162.5,4,294.9,4,294.9,0c0-4-36.1-126.4-80.3-270.9c-192.6-646.1-290.9-1103.5-321-1494.8c-28.1-351.1,18.1-1183.8,102.3-1868c10-92.3,16-170.5,14-174.5c-22.1-20.1-1133.6,242.8-1532.9,365.1c-499.6,150.5-656.1,230.7-949,489.6C1244.6-2504.3,753-1970.6,747-1920.5c-4,18.1-42.1,150.5-86.3,292.9c-88.3,282.9-166.5,654.1-204.7,963.1C428-421.7,442,178.2,486.2,521.3c32.1,238.8,104.3,678.2,122.4,728.3C618.6,1277.7,582.5,1291.8,1050,1083.1z M5542.3,908.5c6-26.1,12-100.3,12-166.5c0-146.5-36.1-210.7-118.4-210.7c-66.2,0-272.9,102.3-272.9,134.4c0,22.1,325,282.9,353.1,284.9C5524.2,952.7,5534.3,932.6,5542.3,908.5z M5506.2-1543.3c138.4-70.2,317-224.7,445.4-387.2l66.2-84.3l-315-250.8c-172.6-140.4-321-252.8-331.1-252.8c-8,0-48.2,68.2-86.3,150.5C4964.4-1691.7,5062.8-1322.6,5506.2-1543.3z"/><path d="M8309.1,2349.1c-294.9-96.3-561.8-423.3-630-770.5c-32.1-170.5-14-411.3,42.1-541.7c56.2-128.4,190.6-256.8,290.9-276.9c329.1-60.2,712.3,228.7,856.7,648.1c36.1,108.3,46.1,178.6,46.1,347.1c0,202.7-4,218.7-70.2,351.1c-88.3,178.6-188.6,254.8-345.1,264.8C8441.5,2373.2,8355.3,2365.2,8309.1,2349.1z M8491.7,2036.1c166.5-62.2,140.4-447.4-50.2-746.4c-76.3-118.4-202.7-216.7-278.9-216.7c-124.4,0-216.7,154.5-190.6,317c50.2,294.9,226.7,589.9,391.3,652.1C8409.4,2058.2,8435.5,2058.2,8491.7,2036.1z"/><path d="M6880.5,503.3c-118.4-42.1-216.7-144.5-296.9-307c-72.2-146.5-76.2-164.5-76.2-345.1c0-174.5,6-204.6,62.2-323c82.3-174.6,156.5-256.8,278.9-313c120.4-58.2,194.6-60.2,303-10c168.5,76.2,307,278.9,351.1,511.6c54.2,298.9-92.3,646.1-325,762.4C7063.1,535.4,6986.9,541.4,6880.5,503.3z M7077.2,170.2c150.5-78.3,128.4-614-26.1-654.1c-134.4-32.1-198.6,52.1-210.7,274.9c-8,194.6,6,278.9,60.2,347.1C6942.8,192.3,7013,206.3,7077.2,170.2z"/></g></g>
</svg>