<?xml version="1.0" encoding="utf-8"?>
<!-- Svg Vector Icons : http://www.onlinewebfonts.com/icon -->
<!DOCTYPE svg PUBLIC "-//W3C//DTD SVG 1.1//EN" "http://www.w3.org/Graphics/SVG/1.1/DTD/svg11.dtd">
<svg version="1.1" xmlns="http://www.w3.org/2000/svg" xmlns:xlink="http://www.w3.org/1999/xlink" x="0px" y="0px" viewBox="0 0 1000 1000" enable-background="new 0 0 1000 1000" xml:space="preserve">
<metadata> Svg Vector Icons : http://www.onlinewebfonts.com/icon </metadata>
<g><g transform="translate(0.000000,293.000000) scale(0.100000,-0.100000)"><path d="M8680.7,695.6c-114.9-40.2-218.3-128.3-277.7-241.3c-32.6-59.4-42.1-111.1-42.1-220.2c0-141.7,23-204.9,111.1-329.4c19.2-30.6-7.7-65.1-224.1-281.5c-247-247-247-247-354.3-260.4c-164.7-19.2-430.9-78.5-635.8-139.8L7074-830.6l-59.4,118.7c-247.1,499.8-1032.2,882.8-2187,1068.6c-1168.2,189.6-1893.9,122.6-2654.2-247C965.1-476.4,208.6-1725,394.4-2831.8c74.7-444.3,250.9-777.5,589.8-1105l143.6-137.9H633.8c-419.4,0-496-3.8-517.1-28.7c-36.4-44-9.6-260.5,44-379.2c70.9-149.4,170.4-252.8,316-323.6l128.3-63.2h4395h4395l128.3,63.2c145.5,70.9,245.1,174.3,316,323.6c53.6,118.7,80.4,335.1,44,379.2c-21.1,24.9-208.7,28.7-1572.2,28.7c-1275.4,0-1549.3,3.8-1549.3,24.9c0,17.2,55.5,38.3,153.2,59.4c432.8,91.9,787.1,413.7,1141.3,1036c277.7,484.5,520.9,1170.1,555.4,1570.3l13.4,134L8876-995.3l252.8,256.6l72.8-30.6c42.1-17.2,128.3-30.6,201.1-30.6c287.3,0,484.5,199.2,484.5,488.3c0,136-40.2,243.2-124.5,333.2c-78.5,82.4-231.7,155.1-331.3,155.1h-78.5l-11.5,103.4c-21.1,199.2-155.1,367.7-340.9,421.3C8872.2,739.7,8807,739.7,8680.7,695.6z M8989,573.1c86.2-36.4,201.1-170.4,216.4-252.8c5.8-38.3,7.7-109.2,0-157c-17.2-122.6,0-136,164.7-126.4c126.4,7.6,147.5,3.8,216.4-42.1C9697.5-78,9755-170,9764.6-288.7c13.4-187.7-137.9-369.6-329.4-390.7c-68.9-7.7-109.1,0-189.6,40.2c-57.5,26.8-114.9,49.8-130.2,49.8c-15.3,0-126.4-99.6-245.1-218.3c-120.6-120.6-226-216.4-233.6-212.6c-7.7,5.7-19.2,47.9-24.9,93.8c-24.9,168.5-137.9,271.9-317.9,293l-99.6,11.5L8426-390.2c239.4,239.4,271.9,294.9,193.4,337.1c-21.1,11.5-59.4,57.5-86.2,103.4c-141.7,241.3,32.6,543.9,312.1,547.7C8889.4,598,8954.5,586.5,8989,573.1z M4482.9,274.3c890.5-114.9,1555-316,1991.6-605.1c218.3-143.6,482.6-455.8,453.9-532.4c-3.8-13.4-80.4-51.7-168.5-88.1c-658.8-266.2-1216-676-1401.8-1030.3c-356.2-681.7-40.2-1524.4,712.4-1901.6c136-68.9,373.4-134,484.5-134c51.7,0,72.8-7.7,72.8-28.7c0-24.9-304.5-28.7-2631.2-28.7H1365.3l-120.6,90c-384.9,281.5-645.4,693.2-723.9,1143.2c-34.5,189.6-24.9,547.7,17.2,760.3c189.6,924.9,926.9,1771.4,1886.3,2164c214.5,86.2,545.8,178.1,756.4,206.8c78.5,11.5,164.7,24.9,191.5,28.7C3492.9,339.4,4188,310.7,4482.9,274.3z M8358.9-788.5c107.2-46,136-132.1,134.1-423.2c0-281.5-34.5-453.9-164.7-833c-264.3-767.9-710.5-1447.8-1110.7-1691c-197.2-118.7-344.7-155.1-597.5-141.7c-141.7,5.8-248.9,23-323.6,49.8c-559.2,197.3-951.8,716.2-951.8,1254.3c0,429,227.9,777.5,718.1,1101.1C6530.1-1163.9,7275-867,7815.1-775.1C7937.6-754,8297.7-763.6,8358.9-788.5z M9760.7-4289.2c-21.1-141.7-107.2-285.3-208.7-354.3c-51.7-34.5-124.5-70.8-162.8-82.3c-97.7-26.8-8680.8-26.8-8778.4,0c-38.3,11.5-111.1,47.9-162.8,82.3c-101.5,68.9-187.7,212.6-208.7,354.3l-13.4,80.4H5000h4774.1L9760.7-4289.2z"/></g></g>
</svg>