<?xml version="1.0" encoding="utf-8"?>
<!-- Svg Vector Icons : http://www.onlinewebfonts.com/icon -->
<!DOCTYPE svg PUBLIC "-//W3C//DTD SVG 1.1//EN" "http://www.w3.org/Graphics/SVG/1.1/DTD/svg11.dtd">
<svg version="1.1" xmlns="http://www.w3.org/2000/svg" xmlns:xlink="http://www.w3.org/1999/xlink" x="0px" y="0px" viewBox="0 0 1000 1000" enable-background="new 0 0 1000 1000" xml:space="preserve">
<metadata> Svg Vector Icons : http://www.onlinewebfonts.com/icon </metadata>
<g><g transform="translate(0.000000,511.000000) scale(0.100000,-0.100000)"><path d="M4859.1,4970c-713.4-184-1321.3-918.1-1331.7-1606.7l-2.1-167.5l-161.3-24.8c-581.1-84.8-1106.3-494.2-1371-1067c-175.8-378.4-182-843.7-16.5-1199.3c93.1-196.4,384.6-430.1,698.9-558.3c68.2-29,308.1-99.2,529.4-157.2c341.2-86.8,440.4-105.5,651.4-113.7c155.1-8.3,293.6-2.1,368.1,14.5c182,37.2,426,169.6,570.7,308.1l124.1,119.9l57.9-60C5154.8,272,5481.5,85.9,5779.3,3.2c155.1-43.4,208.9-45.5,796.1-45.5l630.7-2.1L7357,11.4c208.9,74.4,359.8,169.6,510.7,316.4c227.5,221.3,289.5,436.3,273,930.5c-12.4,343.3-53.8,548-159.2,773.4c-177.8,376.3-500.4,676.2-911.9,845.7l-136.5,55.8l-12.4,279.2c-12.4,322.6-53.8,548-142.7,758.9c-208.8,504.5-659.6,893.3-1168.3,1007C5402.9,5023.8,5057.6,5019.7,4859.1,4970z"/><path d="M3027-156c-101.3-45.5-163.3-126.1-196.4-256.4c-33.1-138.5-12.4-192.3,138.5-335c140.6-134.4,150.9-163.3,111.7-299.8c-26.9-91,2.1-136.5,159.2-252.3c428-314.3,1166.2-653.4,1519.8-694.8c345.3-41.4,1174.5,105.4,1559.1,275c109.6,47.6,113.7,53.8,200.6,241.9c49.6,105.4,105.5,204.7,122,219.2c16.5,12.4,84.8,43.4,148.9,66.2c64.1,20.7,144.7,60,179.9,82.7c86.9,62,146.8,194.4,151,322.6c2.1,95.1-6.2,117.8-60,173.7c-132.4,138.5-415.6,233.6-909.8,301.9c-221.3,31-423.9,37.2-1137.3,41.4c-851.9,2.1-874.7,4.1-1168.3,57.9C3248.3-100.2,3163.5-94,3027-156z"/><path d="M3279.3-1835.1c-33.1-47.5-31-57.9,31-432.2c51.7-306,88.9-448.7,136.5-500.4c128.2-142.7,833.3,177.8,833.3,378.4c0,80.6-97.2,184-275,295.7c-165.4,103.4-597.6,301.9-657.6,301.9C3326.9-1791.7,3295.8-1810.3,3279.3-1835.1z"/><path d="M5665.5-2178.4c-477.6-76.5-703-173.7-670-281.2c51.7-173.7,560.4-471.5,814.7-477.7l113.7-2.1l84.8,130.3c148.9,227.5,244,599.6,161.3,632.8C6134.9-2163.9,5750.3-2163.9,5665.5-2178.4z"/><path d="M4455.9-2815.2c-275-60-618.3-210.9-738.2-324.6c-57.9-53.8-62-68.2-51.7-157.1c20.7-165.4,194.4-663.8,322.6-924.3c177.8-359.8,384.6-568.6,562.4-568.6c186.1,0,610,483.9,856.1,973.9c84.8,165.4,175.8,403.2,175.8,452.9c0,37.2-150.9,188.2-268.8,268.8c-213,144.7-593.5,312.2-696.8,308.1C4596.5-2786.3,4524.1-2800.8,4455.9-2815.2z"/></g></g>
</svg>