<?xml version="1.0" encoding="utf-8"?>
<!-- Svg Vector Icons : http://www.onlinewebfonts.com/icon -->
<!DOCTYPE svg PUBLIC "-//W3C//DTD SVG 1.1//EN" "http://www.w3.org/Graphics/SVG/1.1/DTD/svg11.dtd">
<svg version="1.1" xmlns="http://www.w3.org/2000/svg" xmlns:xlink="http://www.w3.org/1999/xlink" x="0px" y="0px" viewBox="0 0 1000 1000" enable-background="new 0 0 1000 1000" xml:space="preserve">
<metadata> Svg Vector Icons : http://www.onlinewebfonts.com/icon </metadata>
<g><g transform="translate(0.000000,511.000000) scale(0.100000,-0.100000)"><path d="M3923.7,5029.6c-608.4-101.1-1268.4-424.9-1920.1-940.5c-255.7-202.1-738.3-680.6-934.3-926c-360.9-451.7-682.7-1014.7-825-1443.7C135.1,1387.3,100,1187.3,100,894.4c0-290.8,30.9-445.5,136.1-660C314.5,75.6,595-223.4,999.2-574c1474.6-1280.8,3075.1-2017.1,4388.9-2017.1c346.5,0,525.9,28.9,944.6,148.5l88.7,24.7l528-528l530.1-530l-53.7-109.3c-255.7-523.8,51.6-1130.2,629-1235.4c455.8-84.6,901.3,231,987.9,697.1l22.7,123.8l123.7,22.7c468.2,86.6,781.7,532.1,697.1,990c-70.1,377.4-344.4,645.5-726,707.4c-148.5,24.7-342.4,0-464-57.7l-72.2-35.1l-536.2,536.2l-538.3,538.3l53.7,165c94.9,303.2,123.7,505.3,123.7,882.7c0,497.1-64,874.5-249.6,1441.6c-276.3,849.7-798.1,1781.9-1456.1,2600.7c-466.1,579.5-903.3,1023-1107.5,1119.9C4637.3,5042,4266.1,5087.3,3923.7,5029.6z M4647.7,4456.2c643.5-315.6,457.8-1441.6-420.7-2567.7c-202.1-259.9-637.3-703.3-880.7-899.2c-860-686.8-1769.6-1010.6-2303.7-814.7c-175.3,66-319.7,218.6-375.4,400.1c-140.2,453.7,49.5,1142.6,509.4,1843.8c266.1,404.2,738.4,924,1126.1,1239.5c400.1,323.8,928.1,627,1303.5,750.7c286.7,94.9,414.6,115.5,678.5,109.3C4507.4,4514,4542.5,4507.8,4647.7,4456.2z M8475.5-2939.6c24.8-12.4,84.6-22.7,136.1-22.7c72.2,0,109.3,14.4,187.7,76.3c82.5,63.9,117.5,76.3,214.5,82.5c214.5,14.4,354.8-119.6,354.8-334.1c0-268.1-280.5-412.5-523.9-270.2c-132,76.3-239.2,72.2-334.1-14.4c-103.1-94.9-115.5-202.1-39.2-348.6c103.1-191.8,68-373.3-86.7-480.5c-214.5-144.4-521.8,16.5-521.8,274.3c0,119.6,28.9,177.4,132,280.5c103.1,99,127.9,160.9,105.2,276.4c-12.4,66-97,160.9-614.6,680.6c-544.5,546.5-598.1,606.4-561,627c22.7,12.4,111.4,92.8,195.9,181.5l154.7,158.8l577.5-571.3C8170.3-2659.1,8450.8-2927.2,8475.5-2939.6z"/><path d="M3292.6,3588c-598.1-193.9-1313.8-847.7-1625.2-1487c-127.9-257.8-156.7-363-156.7-556.9c0-292.9,179.4-499.1,466.1-536.2c268.1-35.1,752.8,169.1,1126.1,476.4c185.6,152.6,480.5,459.9,624.9,651.7c274.3,363,445.5,789.9,412.5,1027.1c-30.9,214.5-142.3,367.1-325.9,443.4C3703.1,3654,3467.9,3645.7,3292.6,3588z M3608.2,3039.4c-26.8-216.6-235.1-548.6-550.7-874.5c-325.9-336.2-693-583.7-936.3-629l-99-18.6l10.3,82.5c14.4,101.1,129.9,346.5,243.4,513.5c309.4,457.9,886.8,919.8,1256,1008.5c39.2,8.2,76.3,16.5,80.4,18.6C3616.4,3142.5,3614.4,3097.1,3608.2,3039.4z"/></g></g>
</svg>