<?xml version="1.0" encoding="utf-8"?>
<!-- Svg Vector Icons : http://www.onlinewebfonts.com/icon -->
<!DOCTYPE svg PUBLIC "-//W3C//DTD SVG 1.1//EN" "http://www.w3.org/Graphics/SVG/1.1/DTD/svg11.dtd">
<svg version="1.1" xmlns="http://www.w3.org/2000/svg" xmlns:xlink="http://www.w3.org/1999/xlink" x="0px" y="0px" viewBox="0 0 1000 1000" enable-background="new 0 0 1000 1000" xml:space="preserve">
<metadata> Svg Vector Icons : http://www.onlinewebfonts.com/icon </metadata>
<g><g transform="translate(0.000000,511.000000) scale(0.100000,-0.100000)"><path d="M3261.9,4989.2c-383.3-93.6-544.3-386.3-412.6-754.9c99.5-283.8,468.2-714,904.2-1056.3l201.9-158l-392.1-79c-602.8-120-945.1-254.6-1173.4-459.4c-187.3-169.7-228.2-286.8-228.2-670.1c0-204.8-11.7-333.6-32.2-348.2c-17.6-8.8-70.2-79-117-152.2c-140.5-219.5-105.3-506.2,79-681.8l70.2-64.4V-1024c0-1120.7-8.8-1594.8-32.2-1609.4c-17.6-8.8-70.2-79-117-152.2c-137.5-216.5-117-456.5,55.6-652.5c76.1-84.9,87.8-128.8,99.5-307.2c11.7-257.5,93.6-395,321.9-544.3C2983.9-4620.3,3844.2-4790,5000-4790c1155.8,0,2016.1,169.7,2510.6,500.4c228.2,149.2,310.2,286.8,321.9,544.3c11.7,178.5,23.4,222.4,99.5,307.2c172.6,196.1,193.1,436,55.6,652.5c-46.8,73.2-99.5,143.4-117.1,152.2c-23.4,14.6-32.2,488.7-32.2,1609.4V564.9l70.3,64.4c184.3,175.6,219.5,462.3,79,681.8c-46.8,73.2-99.5,143.4-120,155.1c-23.4,14.6-29.3,152.2-23.4,477l8.8,459.4l-102.4,190.2c-117.1,213.6-491.6,623.3-816.4,886.6c-523.8,430.1-1413.3,942.2-2106.8,1220.2C4233.3,4936.6,3548.6,5062.4,3261.9,4989.2z M3934.9,4506.4c757.9-155.1,1922.5-743.3,2689.1-1354.8c415.5-330.7,804.7-784.2,804.7-942.2c0-67.3-61.4-84.9-307.2-84.9c-877.9,0-2768.2,977.3-3558.2,1837.6c-269.2,292.6-386.2,529.6-280.9,570.6C3358.4,4565,3727.1,4550.3,3934.9,4506.4z M4909.3,2417.2c465.3-254.6,965.6-471.1,1369.5-588.2c471.1-137.5,459.4-128.8,213.6-181.4c-500.4-111.2-658.4-122.9-1507-122.9c-678.9,2.9-904.2,11.7-1126.6,52.7c-620.4,114.1-994.9,239.9-1167.5,392.1l-105.3,96.6l102.4,87.8c201.9,175.6,807.6,354.1,1445.5,424.3c196.1,20.5,365.8,38,380.4,41C4526,2619.1,4704.5,2531.3,4909.3,2417.2z M3136,1275.9c804.7-225.3,1951.8-286.8,2935-158c395,49.7,930.5,181.4,1161.7,283.8l166.8,76.1v-102.4c0-84.9,23.4-122.9,117.1-207.8c64.4-58.5,117-120,117-140.4c0-52.7-149.2-178.5-313.1-260.4c-201.9-99.5-591.1-210.7-983.2-278c-359.9-61.5-441.8-111.2-436-266.3c2.9-143.4,76.1-204.8,245.8-204.8c181.4,0,655.4,93.7,953.9,190.2c122.9,41,242.9,73.2,263.4,73.2c26.3,0,35.1-330.7,35.1-1553.8v-1550.9l117.1-105.4c64.4-58.5,117-122.9,117-143.4c0-67.3-196.1-207.8-424.3-301.4c-231.2-96.6-702.3-216.6-997.8-254.6c-207.8-23.4-316-108.3-310.2-242.9c2.9-146.3,76.1-207.8,240-207.8c175.6,0,670.1,99.5,962.7,190.2c263.4,84.9,286.8,87.8,234.1,26.3c-114.1-137.5-629.1-313.1-1220.2-412.6c-447.7-76.1-1787.9-76.1-2235.6,0c-599.9,102.4-1106.1,275.1-1226.1,418.5c-46.8,58.5-79,64.3,333.6-58.5c152.2-43.9,289.7-67.3,330.7-58.5c146.3,38,207.8,239.9,108.3,357c-32.2,35.1-163.9,90.7-324.8,134.6c-307.2,84.8-538.4,193.1-655.5,304.3c-96.6,87.8-102.4,125.8-29.3,190.2c49.8,46.8,67.3,41,257.5-52.7c351.1-172.6,869.1-298.5,1504-365.8c330.7-35.1,1360.7-35.1,1562.6-2.9c266.3,43.9,251.6-43.9,251.6,1559.6v1401.6l-70.2,70.2l-70.2,70.2l-564.7-17.6C4429.4-351,3727.1-272,3133.1-84.7c-324.8,102.4-594,286.8-523.8,357c11.7,8.8,131.7-20.5,272.1-64.4c330.6-105.3,468.2-108.3,541.3-17.6c70.2,87.8,70.2,222.4,0,292.6c-32.2,32.2-114.1,73.2-184.4,90.7C2861,670.2,2580.1,793.1,2448.4,919c-46.8,41-81.9,90.7-81.9,108.3c0,20.5,52.7,81.9,117,140.4c93.6,84.9,117,122.9,117,207.8v102.4l163.9-73.2C2852.2,1366.7,3019,1308.1,3136,1275.9z M2896.1-476.8c248.7-99.5,801.8-219.5,1231.9-263.3c158-17.6,535.5-32.2,842.7-32.2h556v-1097.3V-2967l-76.1-17.5c-125.8-32.2-1141.2,8.8-1495.3,61.4c-591.1,84.9-1106.1,242.9-1267,395l-87.8,81.9v1044.6c0,825.2,8.8,1041.7,38,1030C2656.1-380.3,2773.2-427.1,2896.1-476.8z"/></g></g>
</svg>