<?xml version="1.0" encoding="utf-8"?>
<!-- Svg Vector Icons : http://www.onlinewebfonts.com/icon -->
<!DOCTYPE svg PUBLIC "-//W3C//DTD SVG 1.1//EN" "http://www.w3.org/Graphics/SVG/1.1/DTD/svg11.dtd">
<svg version="1.1" xmlns="http://www.w3.org/2000/svg" xmlns:xlink="http://www.w3.org/1999/xlink" x="0px" y="0px" viewBox="0 0 1000 1000" enable-background="new 0 0 1000 1000" xml:space="preserve">
<metadata> Svg Vector Icons : http://www.onlinewebfonts.com/icon </metadata>
<g><path d="M778.8,31.4c3.9,0,5.3,1,6.5,2.2l8.4,8.4c17.3,17.3,38.8,38.7,60.6,60.6c5.6,5.6,13.1,8.6,20.6,8.6c4.8,0,9.6-1.2,14-3.6l21.1-11.7l-11.7,19.9c-6.7,11.4-4.9,25.9,4.5,35.3c7.4,7.4,14.6,14.6,21.5,21.5c13.3,13.3,26,26,36.2,36.1c0.2,0.2,0.6,0.7,0.6,3c-0.1,5-3,23.6-34.2,62.8l1.2-69.4c0.2-9.3-4.1-18.1-11.5-23.7c-5.1-3.9-11.3-5.9-17.5-5.9c-2.8,0-5.6,0.4-8.4,1.2l-65.8,19.8l16.3-71.8c1.8-7.9,0.2-16.2-4.4-22.9c-4.6-6.7-11.8-11.1-19.8-12.3l-113-16.2c1.2-1,2.4-2,3.6-3c14.7-12.1,28.4-21.7,40.6-28.4C764.8,32.8,774.5,31.4,778.8,31.4L778.8,31.4 M778.8,2.4c-55,0-138.6,91.4-138.6,91.4l172.4,24.7l-27.3,120.4l113.5-34.2l-2.5,145.2c0,0,128.3-117.9,84.5-161.7c-15.4-15.3-35.8-35.7-57.6-57.6l42.6-72.4l-16.9-16.9l-74.1,40.9c-25.4-25.5-50-50-69-69C798.3,5.6,789,2.4,778.8,2.4L778.8,2.4z"/><path d="M649.2,144.2l106.3,15.2l-22.3,98.4c-2.3,10.1,1,20.6,8.5,27.7c5.5,5.1,12.6,7.8,19.8,7.8c2.8,0,5.6-0.4,8.4-1.2l75.8-22.9l-1.8,105.6c-8.6,16.1-35.7,64.9-83.2,136.2C706.4,592.5,614,719.9,482.1,864.6c-0.8,0.9-1.5,1.8-2.2,2.7c-3.8,5.3-11.3,11.9-18.5,18.4c-4.6,4.1-9.4,8.4-13.8,12.8c-22.9,22.9-49.5,40.6-79.1,52.6c-28.7,11.6-59,17.5-90.1,17.5c-31.1,0-61.4-5.9-90.1-17.5c-29.7-12-56.3-29.7-79.2-52.6c-22.8-22.8-40.5-49.5-52.5-79.1c-11.6-28.7-17.5-59-17.5-90.1s5.9-61.4,17.5-90.1c12-29.7,29.7-56.3,52.6-79.2c10.7-10.7,45.8-46,49.6-50.1c0,0,0,0,0.1-0.1c54.5-59.5,157.9-142.4,299-239.7C545.8,209.3,623.6,160.2,649.2,144.2 M642.8,114c0,0-368.5,226.8-505.5,376.3c-3.6,3.9-48.8,49.3-48.8,49.3C-16.2,644.3-16.2,814.2,88.6,919c52.4,52.4,121.1,78.6,189.8,78.6s137.4-26.2,189.8-78.6c10.9-10.9,26.8-22.6,35.4-34.8c257.7-282.8,369.2-501.9,369.2-501.9l2.6-152.4l-113.9,34.4l29.3-129.1L642.8,114L642.8,114z"/></g>
</svg>